<svg xmlns="http://www.w3.org/2000/svg" xmlns:xlink="http://www.w3.org/1999/xlink" width="400" zoomAndPan="magnify" viewBox="0 0 300 187.499995" height="250" preserveAspectRatio="xMidYMid meet" version="1.0"><defs><g/></defs><g fill="#231f20" fill-opacity="1"><g transform="translate(5.816614, 126.662786)"><g><path d="M 80.875 -15.796875 C 81.257812 -15.828125 81.4375 -15.53125 81.40625 -14.90625 C 81.375 -14.28125 81.128906 -13.953125 80.671875 -13.921875 C 80.222656 -13.847656 79.816406 -13.632812 79.453125 -13.28125 C 79.097656 -12.925781 78.921875 -12.539062 78.921875 -12.125 C 79.023438 -8.375 78.546875 -4.765625 77.484375 -1.296875 C 76.421875 2.171875 75 5.519531 73.21875 8.75 C 69.695312 15.4375 65.414062 21.382812 60.375 26.59375 C 55.34375 31.8125 49.453125 36.207031 42.703125 39.78125 C 38.992188 41.71875 35.171875 43.171875 31.234375 44.140625 C 27.296875 45.109375 23.210938 45.46875 18.984375 45.21875 C 15.460938 45.019531 12.15625 44.078125 9.0625 42.390625 C 5.382812 40.210938 2.953125 37.367188 1.765625 33.859375 C 0.585938 30.359375 0.8125 26.632812 2.4375 22.6875 C 4.132812 18.851562 6.816406 15.28125 10.484375 11.96875 C 14.148438 8.65625 18.410156 5.609375 23.265625 2.828125 C 28.128906 0.0546875 33.195312 -2.390625 38.46875 -4.515625 C 43.738281 -6.648438 48.820312 -8.46875 53.71875 -9.96875 C 58.613281 -11.476562 62.960938 -12.617188 66.765625 -13.390625 C 67.804688 -13.640625 68.828125 -13.859375 69.828125 -14.046875 C 70.921875 -14.242188 71.988281 -14.457031 73.03125 -14.6875 C 73.925781 -14.84375 74.242188 -15.328125 73.984375 -16.140625 C 73.085938 -19.859375 71.300781 -23.050781 68.625 -25.71875 C 66.6875 -27.625 64.582031 -29.234375 62.3125 -30.546875 C 60.050781 -31.859375 57.664062 -32.960938 55.15625 -33.859375 C 47.59375 -36.535156 39.78125 -38.039062 31.71875 -38.375 C 31.175781 -38.425781 30.613281 -38.453125 30.03125 -38.453125 C 29.375 -38.398438 29.03125 -38.050781 29 -37.40625 C 28.914062 -36.625 28.875 -35.847656 28.875 -35.078125 C 28.832031 -29.003906 28.8125 -22.921875 28.8125 -16.828125 C 28.78125 -14.148438 28.765625 -11.457031 28.765625 -8.75 C 28.765625 -8.550781 28.765625 -8.378906 28.765625 -8.234375 C 28.765625 -7.847656 28.765625 -7.460938 28.765625 -7.078125 C 28.566406 -5.335938 27.660156 -4.726562 26.046875 -5.25 C 25.410156 -5.445312 25.078125 -5.863281 25.046875 -6.5 C 24.972656 -7.375 24.953125 -8.265625 24.984375 -9.171875 C 24.953125 -14.660156 24.9375 -20.132812 24.9375 -25.59375 C 24.9375 -28.351562 24.9375 -31.09375 24.9375 -33.8125 C 24.9375 -34.039062 24.9375 -34.269531 24.9375 -34.5 C 24.9375 -35.144531 24.914062 -35.820312 24.875 -36.53125 C 24.875 -37.269531 24.765625 -37.753906 24.546875 -37.984375 C 24.328125 -38.210938 23.875 -38.34375 23.1875 -38.375 C 22.875 -38.375 22.582031 -38.375 22.3125 -38.375 C 21.570312 -38.425781 20.851562 -38.488281 20.15625 -38.5625 C 19.539062 -38.632812 19.117188 -38.960938 18.890625 -39.546875 C 18.691406 -40.285156 18.882812 -40.890625 19.46875 -41.359375 C 20.238281 -41.972656 21.046875 -42.570312 21.890625 -43.15625 C 22.242188 -43.382812 22.5625 -43.578125 22.84375 -43.734375 C 23.5 -44.160156 23.972656 -44.507812 24.265625 -44.78125 C 24.554688 -45.050781 24.726562 -45.359375 24.78125 -45.703125 C 24.84375 -46.046875 24.875 -46.585938 24.875 -47.328125 C 24.820312 -47.753906 24.796875 -48.257812 24.796875 -48.84375 C 24.847656 -53.226562 24.875 -57.628906 24.875 -62.046875 C 24.875 -64.472656 24.875 -66.925781 24.875 -69.40625 C 24.875 -69.445312 24.875 -69.507812 24.875 -69.59375 C 24.875 -70.4375 24.910156 -71.265625 24.984375 -72.078125 C 25.054688 -73.140625 25.671875 -73.648438 26.828125 -73.609375 C 27.960938 -73.648438 28.609375 -73.164062 28.765625 -72.15625 C 28.835938 -71.132812 28.875 -70.101562 28.875 -69.0625 C 28.875 -66.425781 28.875 -63.796875 28.875 -61.171875 C 28.875 -57.953125 28.898438 -54.753906 28.953125 -51.578125 C 28.898438 -51.347656 28.875 -51.140625 28.875 -50.953125 C 28.800781 -50.054688 28.941406 -49.023438 29.296875 -47.859375 C 31.847656 -49.335938 34.929688 -51.207031 38.546875 -53.46875 C 42.171875 -55.726562 45.859375 -58.15625 49.609375 -60.75 C 53.367188 -63.351562 56.703125 -65.953125 59.609375 -68.546875 C 62.515625 -71.148438 64.53125 -73.550781 65.65625 -75.75 C 66.851562 -78.269531 66.3125 -80.335938 64.03125 -81.953125 C 61.207031 -83.859375 57.554688 -84.898438 53.078125 -85.078125 C 48.609375 -85.253906 43.890625 -84.773438 38.921875 -83.640625 C 33.960938 -82.515625 29.351562 -80.945312 25.09375 -78.9375 C 20.832031 -76.9375 17.46875 -74.675781 15 -72.15625 C 14.226562 -71.332031 13.53125 -70.351562 12.90625 -69.21875 C 12.28125 -68.082031 11.789062 -66.953125 11.4375 -65.828125 C 11.175781 -65.117188 10.65625 -64.707031 9.875 -64.59375 C 9.101562 -64.476562 8.441406 -64.691406 7.890625 -65.234375 C 7.628906 -65.628906 7.550781 -66.054688 7.65625 -66.515625 C 8.007812 -67.828125 8.617188 -69.03125 9.484375 -70.125 C 12.234375 -73.644531 16.132812 -76.722656 21.1875 -79.359375 C 26.238281 -81.992188 31.71875 -83.988281 37.625 -85.34375 C 43.53125 -86.695312 49.132812 -87.257812 54.4375 -87.03125 C 59.75 -86.800781 64.035156 -85.59375 67.296875 -83.40625 C 70.628906 -81.132812 71.34375 -78.210938 69.4375 -74.640625 C 68.46875 -72.859375 67.046875 -71.046875 65.171875 -69.203125 C 63.296875 -67.367188 61.300781 -65.628906 59.1875 -63.984375 C 57.070312 -62.335938 55.195312 -60.914062 53.5625 -59.71875 C 50.59375 -57.550781 47.539062 -55.46875 44.40625 -53.46875 C 41.269531 -51.46875 38.109375 -49.519531 34.921875 -47.625 C 34.847656 -47.582031 34.769531 -47.53125 34.6875 -47.46875 C 33.09375 -46.5625 31.539062 -45.628906 30.03125 -44.671875 C 28.957031 -43.859375 28.628906 -42.773438 29.046875 -41.421875 C 29.085938 -41.296875 29.175781 -41.164062 29.3125 -41.03125 C 29.457031 -40.894531 29.597656 -40.828125 29.734375 -40.828125 C 30.367188 -40.710938 30.992188 -40.65625 31.609375 -40.65625 C 31.648438 -40.65625 31.707031 -40.65625 31.78125 -40.65625 C 40.15625 -40.425781 48.316406 -38.988281 56.265625 -36.34375 C 60.660156 -34.945312 64.757812 -32.914062 68.5625 -30.25 C 70.851562 -28.625 72.800781 -26.765625 74.40625 -24.671875 C 76.007812 -22.578125 77.195312 -20.171875 77.96875 -17.453125 C 78.21875 -16.578125 78.503906 -16.039062 78.828125 -15.84375 C 79.148438 -15.65625 79.832031 -15.640625 80.875 -15.796875 Z M 74.609375 -9.171875 C 74.773438 -10.753906 74.660156 -11.71875 74.265625 -12.0625 C 73.878906 -12.414062 72.882812 -12.398438 71.28125 -12.015625 C 67.5 -11.242188 63.226562 -10.15625 58.46875 -8.75 C 53.707031 -7.351562 48.804688 -5.644531 43.765625 -3.625 C 38.734375 -1.613281 33.890625 0.695312 29.234375 3.3125 C 24.585938 5.925781 20.488281 8.832031 16.9375 12.03125 C 13.394531 15.226562 10.734375 18.738281 8.953125 22.5625 C 7.671875 25.46875 7.085938 28.207031 7.203125 30.78125 C 7.316406 33.363281 7.972656 35.59375 9.171875 37.46875 C 10.378906 39.34375 11.972656 40.664062 13.953125 41.4375 C 16.460938 42.40625 19.078125 42.9375 21.796875 43.03125 C 21.984375 43.03125 22.15625 43.007812 22.3125 42.96875 C 22.707031 42.914062 23.097656 42.890625 23.484375 42.890625 C 28.585938 42.398438 33.410156 41.007812 37.953125 38.71875 C 46.234375 34.613281 53.21875 29.328125 58.90625 22.859375 C 64.601562 16.390625 69.117188 8.875 72.453125 0.3125 C 73.609375 -2.75 74.328125 -5.910156 74.609375 -9.171875 Z M 74.609375 -9.171875 "/></g></g></g><g fill="#231f20" fill-opacity="1"><g transform="translate(90.288343, 126.662786)"><g><path d="M 19.0625 -12.3125 C 19.363281 -13.03125 19.691406 -13.390625 20.046875 -13.390625 C 20.398438 -13.390625 20.515625 -13.03125 20.390625 -12.3125 C 19.804688 -10.507812 19.109375 -8.785156 18.296875 -7.140625 C 17.492188 -5.492188 16.394531 -4.019531 15 -2.71875 C 13.945312 -1.664062 12.6875 -0.988281 11.21875 -0.6875 C 9.226562 -0.40625 7.585938 -0.640625 6.296875 -1.390625 C 5.003906 -2.148438 3.976562 -3.238281 3.21875 -4.65625 C 2.46875 -6.070312 1.90625 -7.617188 1.53125 -9.296875 C 1.164062 -10.984375 0.925781 -12.617188 0.8125 -14.203125 C 0.53125 -17.203125 0.320312 -21.140625 0.1875 -26.015625 C 0.0625 -30.890625 0.113281 -36.046875 0.34375 -41.484375 C 0.570312 -46.929688 1.101562 -51.976562 1.9375 -56.625 C 2.78125 -61.28125 4.007812 -64.882812 5.625 -67.4375 C 6.5625 -68.6875 7.648438 -69.316406 8.890625 -69.328125 C 10.128906 -69.347656 11.234375 -68.78125 12.203125 -67.625 C 12.859375 -66.71875 13.351562 -65.765625 13.6875 -64.765625 C 14.019531 -63.765625 14.238281 -62.742188 14.34375 -61.703125 C 14.695312 -58.128906 14.648438 -54.351562 14.203125 -50.375 C 13.765625 -46.40625 13.070312 -42.164062 12.125 -37.65625 C 11.175781 -33.15625 10.039062 -29.1875 8.71875 -25.75 C 7.394531 -22.320312 6.296875 -19.601562 5.421875 -17.59375 C 4.941406 -16.78125 4.765625 -15.554688 4.890625 -13.921875 C 5.046875 -12.140625 5.382812 -10.28125 5.90625 -8.34375 C 6.425781 -6.40625 7.148438 -4.875 8.078125 -3.75 C 8.960938 -2.8125 9.945312 -2.519531 11.03125 -2.875 C 12.125 -3.226562 13.210938 -3.96875 14.296875 -5.09375 C 15.378906 -6.21875 16.332031 -7.445312 17.15625 -8.78125 C 17.988281 -10.113281 18.625 -11.289062 19.0625 -12.3125 Z M 4.984375 -39.328125 C 4.878906 -38.160156 4.78125 -36.398438 4.6875 -34.046875 C 4.59375 -31.703125 4.5 -29.316406 4.40625 -26.890625 C 4.34375 -24.179688 4.265625 -22.066406 4.171875 -20.546875 C 5.035156 -22.484375 6.039062 -25.300781 7.1875 -29 C 8.332031 -32.695312 9.375 -37.054688 10.3125 -42.078125 C 11.257812 -47.097656 11.875 -52.53125 12.15625 -58.375 C 11.988281 -61.789062 11.578125 -64.101562 10.921875 -65.3125 C 10.265625 -66.53125 9.546875 -66.632812 8.765625 -65.625 C 7.992188 -64.625 7.378906 -62.515625 6.921875 -59.296875 C 6.210938 -53.960938 5.664062 -48.617188 5.28125 -43.265625 C 5.175781 -41.941406 5.078125 -40.628906 4.984375 -39.328125 Z M 4.984375 -39.328125 "/></g></g></g><g fill="#231f20" fill-opacity="1"><g transform="translate(109.068649, 126.662786)"><g><path d="M 20.28125 -14.453125 C 20.550781 -14.710938 20.691406 -14.390625 20.703125 -13.484375 C 20.722656 -12.578125 19.898438 -11.304688 18.234375 -9.671875 C 16.566406 -8.046875 14.847656 -7.28125 13.078125 -7.375 C 12.691406 -7.40625 12.359375 -7.367188 12.078125 -7.265625 C 11.804688 -7.171875 11.578125 -6.953125 11.390625 -6.609375 C 11.191406 -6.285156 10.960938 -5.992188 10.703125 -5.734375 C 10.703125 -5.734375 10.679688 -5.710938 10.640625 -5.671875 C 9.546875 -4.515625 8.265625 -3.75 6.796875 -3.375 C 5.328125 -3.007812 3.929688 -3.125 2.609375 -3.71875 C 1.296875 -4.320312 0.347656 -5.457031 -0.234375 -7.125 C -0.660156 -8.644531 -0.695312 -10.148438 -0.34375 -11.640625 C -0.0390625 -12.960938 0.441406 -14.207031 1.109375 -15.375 C 1.921875 -16.925781 2.972656 -18.019531 4.265625 -18.65625 C 5.554688 -19.300781 7.019531 -19.660156 8.65625 -19.734375 C 11.09375 -19.859375 12.628906 -18.710938 13.265625 -16.296875 C 13.648438 -14.898438 13.742188 -13.492188 13.546875 -12.078125 C 13.492188 -11.753906 13.429688 -11.414062 13.359375 -11.0625 C 13.296875 -10.832031 13.238281 -10.601562 13.1875 -10.375 C 13.113281 -9.601562 13.445312 -9.253906 14.1875 -9.328125 C 16.226562 -9.679688 18.257812 -11.390625 20.28125 -14.453125 Z M 5.921875 -5.4375 C 7.171875 -6.019531 8.039062 -7.007812 8.53125 -8.40625 C 6.457031 -9.71875 5.066406 -11.617188 4.359375 -14.109375 C 3.703125 -12.941406 3.300781 -11.582031 3.15625 -10.03125 C 3.019531 -8.488281 3.175781 -7.207031 3.625 -6.1875 C 4.082031 -5.175781 4.847656 -4.925781 5.921875 -5.4375 Z M 9.484375 -11.140625 C 9.816406 -11.640625 10.015625 -12.25 10.078125 -12.96875 C 10.140625 -13.6875 10.101562 -14.398438 9.96875 -15.109375 C 9.832031 -15.828125 9.644531 -16.390625 9.40625 -16.796875 C 9.175781 -17.203125 8.925781 -17.328125 8.65625 -17.171875 C 8.1875 -16.742188 7.925781 -16.132812 7.875 -15.34375 C 7.820312 -14.550781 7.9375 -13.757812 8.21875 -12.96875 C 8.507812 -12.175781 8.929688 -11.566406 9.484375 -11.140625 Z M 9.484375 -11.140625 "/></g></g></g><g fill="#231f20" fill-opacity="1"><g transform="translate(128.747028, 126.662786)"><g><path d="M 28.703125 -13.34375 C 29.054688 -13.425781 29.359375 -13.453125 29.609375 -13.421875 C 29.859375 -13.398438 29.992188 -13.3125 30.015625 -13.15625 C 30.046875 -13.007812 29.820312 -12.78125 29.34375 -12.46875 C 29.144531 -12.363281 28.914062 -12.210938 28.65625 -12.015625 C 27.726562 -11.347656 26.644531 -10.609375 25.40625 -9.796875 C 24.082031 -8.898438 22.878906 -8.078125 21.796875 -7.328125 C 20.710938 -6.578125 20 -6.007812 19.65625 -5.625 C 19.257812 -5.082031 19.015625 -4.488281 18.921875 -3.84375 C 18.828125 -3.195312 18.765625 -2.503906 18.734375 -1.765625 C 18.671875 -1.179688 18.609375 -0.601562 18.546875 -0.03125 C 17.535156 6.207031 15.835938 11.53125 13.453125 15.9375 C 11.066406 20.351562 8.378906 23.867188 5.390625 26.484375 C 2.410156 29.097656 -0.5 30.804688 -3.34375 31.609375 C -6.1875 32.410156 -8.582031 32.300781 -10.53125 31.28125 C -12.488281 30.269531 -13.644531 28.359375 -14 25.546875 C -14.195312 23.253906 -13.726562 20.914062 -12.59375 18.53125 C -11.46875 16.144531 -9.96875 13.859375 -8.09375 11.671875 C -6.21875 9.492188 -4.234375 7.492188 -2.140625 5.671875 C -0.046875 3.847656 1.890625 2.335938 3.671875 1.140625 C 4.160156 0.785156 4.679688 0.429688 5.234375 0.078125 C 7.742188 -1.660156 10.304688 -3.34375 12.921875 -4.96875 C 14.578125 -5.894531 15.347656 -7.25 15.234375 -9.03125 C 15.234375 -9.226562 15.234375 -9.503906 15.234375 -9.859375 C 15.179688 -10.367188 15.15625 -10.910156 15.15625 -11.484375 C 14.15625 -9.898438 12.742188 -8.460938 10.921875 -7.171875 C 9.097656 -5.890625 7.226562 -4.972656 5.3125 -4.421875 C 3.40625 -3.867188 1.773438 -3.898438 0.421875 -4.515625 C -0.929688 -5.128906 -1.632812 -6.566406 -1.6875 -8.828125 C -1.632812 -9.984375 -1.300781 -11.046875 -0.6875 -12.015625 C 0.769531 -14.609375 2.804688 -16.644531 5.421875 -18.125 C 6.390625 -18.644531 7.554688 -19.023438 8.921875 -19.265625 C 10.296875 -19.503906 11.617188 -19.488281 12.890625 -19.21875 C 14.171875 -18.945312 15.203125 -18.328125 15.984375 -17.359375 C 16.171875 -17.671875 16.445312 -17.875 16.8125 -17.96875 C 17.1875 -18.070312 17.535156 -18.125 17.859375 -18.125 C 17.921875 -18.125 17.972656 -18.125 18.015625 -18.125 C 19.453125 -18.257812 20.128906 -17.597656 20.046875 -16.140625 C 20.015625 -15.078125 19.976562 -14.03125 19.9375 -13 C 19.90625 -12.21875 19.863281 -11.457031 19.8125 -10.71875 C 19.863281 -9.84375 20.347656 -9.554688 21.265625 -9.859375 C 22.191406 -10.171875 23.316406 -10.695312 24.640625 -11.4375 C 26.160156 -12.3125 27.515625 -12.945312 28.703125 -13.34375 Z M 11.75 -11.890625 C 13.375 -13.523438 14.265625 -14.78125 14.421875 -15.65625 C 14.035156 -16.363281 13.429688 -16.789062 12.609375 -16.9375 C 11.796875 -17.09375 10.960938 -17.085938 10.109375 -16.921875 C 9.265625 -16.753906 8.554688 -16.492188 7.984375 -16.140625 C 6.378906 -15.128906 5.203125 -13.90625 4.453125 -12.46875 C 3.703125 -11.039062 3.421875 -9.820312 3.609375 -8.8125 C 3.804688 -7.800781 4.5625 -7.453125 5.875 -7.765625 C 7.1875 -8.078125 9.144531 -9.453125 11.75 -11.890625 Z M 13.953125 -0.3125 C 13.953125 -0.363281 13.96875 -0.410156 14 -0.453125 C 14.050781 -0.679688 14.09375 -0.96875 14.125 -1.3125 C 14.164062 -1.664062 14.15625 -1.957031 14.09375 -2.1875 C 14.03125 -2.414062 13.882812 -2.453125 13.65625 -2.296875 C 12.03125 -1.171875 10.332031 0.0664062 8.5625 1.421875 C 7.5 2.203125 6.503906 2.914062 5.578125 3.5625 C 4.273438 4.53125 2.75 5.789062 1 7.34375 C -0.738281 8.894531 -2.441406 10.628906 -4.109375 12.546875 C -5.785156 14.460938 -7.164062 16.425781 -8.25 18.4375 C -9.332031 20.457031 -9.875 22.394531 -9.875 24.25 C -9.75 26.882812 -9.007812 28.46875 -7.65625 29 C -6.300781 29.539062 -4.597656 29.210938 -2.546875 28.015625 C -0.492188 26.828125 1.632812 24.894531 3.84375 22.21875 C 6.050781 19.539062 8.066406 16.285156 9.890625 12.453125 C 11.710938 8.617188 13.066406 4.363281 13.953125 -0.3125 Z M 13.953125 -0.3125 "/></g></g></g><g fill="#231f20" fill-opacity="1"><g transform="translate(156.71938, 126.662786)"><g><path d="M 13.703125 -10.71875 C 13.160156 -9.59375 12.234375 -8.34375 10.921875 -6.96875 C 9.609375 -5.59375 8.117188 -4.71875 6.453125 -4.34375 C 4.796875 -3.976562 3.207031 -4.554688 1.6875 -6.078125 C 1.101562 -6.742188 0.675781 -7.507812 0.40625 -8.375 C 0.132812 -9.25 0.0351562 -10.113281 0.109375 -10.96875 C 0.109375 -11.195312 0.109375 -11.484375 0.109375 -11.828125 C 0.109375 -12.734375 0.144531 -13.773438 0.21875 -14.953125 C 0.300781 -16.128906 0.476562 -17.191406 0.75 -18.140625 C 1.019531 -19.097656 1.445312 -19.671875 2.03125 -19.859375 C 3.707031 -20.285156 4.613281 -19.707031 4.75 -18.125 C 4.75 -17.613281 4.734375 -17.101562 4.703125 -16.59375 C 4.671875 -16.320312 4.65625 -16.070312 4.65625 -15.84375 C 4.613281 -15.101562 4.578125 -14.363281 4.546875 -13.625 C 4.546875 -13.039062 4.519531 -12.460938 4.46875 -11.890625 C 4.425781 -9.335938 4.992188 -7.816406 6.171875 -7.328125 C 7.359375 -6.847656 8.707031 -7.363281 10.21875 -8.875 C 11.738281 -10.382812 12.726562 -11.640625 13.1875 -12.640625 C 13.65625 -13.648438 13.992188 -13.863281 14.203125 -13.28125 C 14.421875 -12.707031 14.253906 -11.851562 13.703125 -10.71875 Z M 4.40625 -25.296875 C 4.175781 -25.109375 3.898438 -24.988281 3.578125 -24.9375 C 3.253906 -24.882812 2.96875 -24.910156 2.71875 -25.015625 C 2.53125 -25.171875 2.40625 -25.375 2.34375 -25.625 C 2.289062 -25.882812 2.265625 -26.191406 2.265625 -26.546875 C 2.265625 -26.617188 2.285156 -26.6875 2.328125 -26.75 C 2.359375 -27.070312 2.4375 -27.390625 2.5625 -27.703125 C 2.914062 -28.546875 3.644531 -28.9375 4.75 -28.875 C 5.132812 -28.820312 5.4375 -28.660156 5.65625 -28.390625 C 5.882812 -28.128906 5.9375 -27.820312 5.8125 -27.46875 C 5.550781 -26.601562 5.082031 -25.878906 4.40625 -25.296875 Z M 4.40625 -25.296875 "/></g></g></g><g fill="#231f20" fill-opacity="1"><g transform="translate(169.688623, 126.662786)"><g><path d="M 27.65625 -10.140625 C 25.59375 -7.515625 23.671875 -5.820312 21.890625 -5.0625 C 20.117188 -4.3125 18.515625 -4.128906 17.078125 -4.515625 C 15.640625 -4.898438 14.394531 -5.53125 13.34375 -6.40625 C 12.300781 -7.28125 11.535156 -8.023438 11.046875 -8.640625 C 10.847656 -8.828125 10.707031 -8.957031 10.625 -9.03125 C 11.9375 -6.988281 12.859375 -4.320312 13.390625 -1.03125 C 13.921875 2.257812 13.910156 5.148438 13.359375 7.640625 C 12.847656 9.503906 11.859375 10.664062 10.390625 11.125 C 8.921875 11.582031 7.394531 11.210938 5.8125 10.015625 C 4.875 9.203125 4.132812 8.234375 3.59375 7.109375 C 2.65625 5.296875 1.957031 3.398438 1.5 1.421875 C 0.757812 -1.410156 0.285156 -4.28125 0.078125 -7.1875 C -0.128906 -10.09375 -0.195312 -13.015625 -0.125 -15.953125 C 0.03125 -20.179688 0.453125 -24.367188 1.140625 -28.515625 C 1.835938 -32.660156 2.75 -36.785156 3.875 -40.890625 C 4.550781 -43.523438 5.488281 -46.59375 6.6875 -50.09375 C 7.882812 -53.601562 9.363281 -56.945312 11.125 -60.125 C 12.882812 -63.300781 14.941406 -65.738281 17.296875 -67.4375 C 18.316406 -68.175781 19.445312 -68.660156 20.6875 -68.890625 C 23.851562 -69.398438 26.09375 -69.023438 27.40625 -67.765625 C 28.726562 -66.503906 29.320312 -64.613281 29.1875 -62.09375 C 29.0625 -59.570312 28.4375 -56.675781 27.3125 -53.40625 C 26.1875 -50.132812 24.757812 -46.753906 23.03125 -43.265625 C 21.300781 -39.773438 19.515625 -36.421875 17.671875 -33.203125 C 15.835938 -29.992188 14.132812 -27.175781 12.5625 -24.75 C 11 -22.332031 9.796875 -20.5625 8.953125 -19.4375 C 8.703125 -19.082031 8.429688 -18.710938 8.140625 -18.328125 C 8.015625 -18.140625 7.851562 -17.929688 7.65625 -17.703125 C 10.40625 -13.722656 12.835938 -10.992188 14.953125 -9.515625 C 17.066406 -8.035156 18.90625 -7.378906 20.46875 -7.546875 C 22.039062 -7.722656 23.378906 -8.296875 24.484375 -9.265625 C 25.597656 -10.234375 26.492188 -11.203125 27.171875 -12.171875 C 27.910156 -13.140625 28.457031 -13.625 28.8125 -13.625 C 29.363281 -13.46875 29.46875 -13.050781 29.125 -12.375 C 28.789062 -11.695312 28.300781 -10.953125 27.65625 -10.140625 Z M 5.046875 -22.296875 C 4.890625 -21.171875 4.921875 -20.453125 5.140625 -20.140625 C 5.359375 -19.828125 5.851562 -20.21875 6.625 -21.3125 C 7.820312 -22.96875 9.3125 -25.207031 11.09375 -28.03125 C 12.875 -30.863281 14.734375 -33.992188 16.671875 -37.421875 C 18.609375 -40.859375 20.347656 -44.335938 21.890625 -47.859375 C 23.441406 -51.378906 24.566406 -54.671875 25.265625 -57.734375 C 25.960938 -60.796875 26.003906 -63.351562 25.390625 -65.40625 C 25.085938 -66.257812 24.546875 -66.785156 23.765625 -66.984375 C 22.992188 -67.179688 22.160156 -67.039062 21.265625 -66.5625 C 19.359375 -65.488281 17.613281 -63.570312 16.03125 -60.8125 C 14.445312 -58.0625 13.023438 -54.875 11.765625 -51.25 C 10.503906 -47.632812 9.40625 -43.9375 8.46875 -40.15625 C 7.539062 -36.382812 6.785156 -32.914062 6.203125 -29.75 C 5.617188 -26.59375 5.234375 -24.109375 5.046875 -22.296875 Z M 6.390625 1.53125 C 7.078125 4.207031 7.679688 6.117188 8.203125 7.265625 C 8.734375 8.410156 9.085938 8.515625 9.265625 7.578125 C 9.441406 6.648438 9.390625 4.421875 9.109375 0.890625 C 8.878906 -1.816406 8.429688 -4.679688 7.765625 -7.703125 C 7.109375 -10.722656 6.21875 -13.144531 5.09375 -14.96875 C 4.675781 -13.144531 4.601562 -10.613281 4.875 -7.375 C 5.144531 -4.144531 5.648438 -1.175781 6.390625 1.53125 Z M 6.390625 1.53125 "/></g></g></g><g fill="#231f20" fill-opacity="1"><g transform="translate(197.344007, 126.662786)"><g><path d="M 29.8125 -13.34375 C 30.4375 -13.300781 30.546875 -12.988281 30.140625 -12.40625 C 29.734375 -11.832031 29.046875 -11.097656 28.078125 -10.203125 C 27.109375 -9.316406 26.0625 -8.390625 24.9375 -7.421875 C 23.414062 -6.140625 22.191406 -5.03125 21.265625 -4.09375 C 20.222656 -3.207031 19.378906 -1.984375 18.734375 -0.421875 C 18.097656 1.140625 17.78125 2.582031 17.78125 3.90625 C 17.78125 4.613281 17.78125 5.453125 17.78125 6.421875 C 17.8125 8.390625 17.804688 10.757812 17.765625 13.53125 C 17.734375 16.3125 17.582031 19.179688 17.3125 22.140625 C 17.039062 25.097656 16.546875 27.875 15.828125 30.46875 C 15.117188 33.0625 14.101562 35.179688 12.78125 36.828125 C 11.457031 38.472656 9.773438 39.378906 7.734375 39.546875 C 3.804688 39.648438 1.113281 38.019531 -0.34375 34.65625 C -1.46875 31.820312 -1.84375 28.914062 -1.46875 25.9375 C -1.101562 22.957031 -0.273438 20.050781 1.015625 17.21875 C 2.304688 14.382812 3.765625 11.78125 5.390625 9.40625 C 7.023438 7.03125 8.5625 5.035156 10 3.421875 C 11.4375 1.804688 12.460938 0.726562 13.078125 0.1875 C 13.335938 -0.695312 13.488281 -1.71875 13.53125 -2.875 C 13.582031 -4.039062 13.585938 -5.171875 13.546875 -6.265625 C 13.492188 -6.609375 13.46875 -6.914062 13.46875 -7.1875 C 12.695312 -5.988281 11.894531 -5.144531 11.0625 -4.65625 C 10.238281 -4.175781 9.40625 -3.910156 8.5625 -3.859375 C 7.726562 -3.816406 6.941406 -3.84375 6.203125 -3.9375 C 6.128906 -3.9375 6.0625 -3.9375 6 -3.9375 C 4.289062 -4.164062 2.941406 -4.96875 1.953125 -6.34375 C 0.960938 -7.71875 0.320312 -9.285156 0.03125 -11.046875 C -0.25 -12.804688 -0.171875 -14.382812 0.265625 -15.78125 C 0.703125 -17.175781 1.503906 -17.988281 2.671875 -18.21875 C 3.140625 -18.34375 3.664062 -18.40625 4.25 -18.40625 C 4.832031 -18.40625 5.316406 -18.328125 5.703125 -18.171875 C 6.085938 -18.015625 6.21875 -17.722656 6.09375 -17.296875 C 5.75 -15.859375 5.550781 -14.296875 5.5 -12.609375 C 5.445312 -10.929688 5.585938 -9.46875 5.921875 -8.21875 C 6.265625 -6.976562 6.878906 -6.3125 7.765625 -6.21875 C 8.660156 -6.125 9.847656 -6.929688 11.328125 -8.640625 C 12.035156 -9.535156 12.519531 -10.453125 12.78125 -11.390625 C 13.050781 -12.335938 13.265625 -13.359375 13.421875 -14.453125 C 13.453125 -14.835938 13.515625 -15.222656 13.609375 -15.609375 C 13.640625 -15.992188 13.691406 -16.378906 13.765625 -16.765625 C 13.816406 -17.273438 13.878906 -17.78125 13.953125 -18.28125 C 14.140625 -19.09375 14.585938 -19.65625 15.296875 -19.96875 C 16.015625 -20.28125 16.789062 -20.242188 17.625 -19.859375 C 18.039062 -19.617188 18.285156 -19.269531 18.359375 -18.8125 C 18.441406 -17.90625 18.484375 -17.015625 18.484375 -16.140625 C 18.429688 -13.003906 18.40625 -9.144531 18.40625 -4.5625 C 18.457031 -4.601562 18.847656 -4.929688 19.578125 -5.546875 C 20.503906 -6.410156 21.6875 -7.441406 23.125 -8.640625 C 24.5625 -9.835938 25.914062 -10.910156 27.1875 -11.859375 C 28.46875 -12.804688 29.34375 -13.300781 29.8125 -13.34375 Z M 12.59375 13.5 C 12.59375 13.070312 12.617188 12.628906 12.671875 12.171875 C 12.710938 10.503906 12.769531 8.816406 12.84375 7.109375 C 12.84375 7.035156 12.8125 6.941406 12.75 6.828125 C 12.695312 6.710938 12.628906 6.628906 12.546875 6.578125 C 12.347656 6.429688 12.179688 6.40625 12.046875 6.5 C 11.921875 6.601562 11.796875 6.707031 11.671875 6.8125 C 10.054688 8.90625 8.53125 11.273438 7.09375 13.921875 C 5.65625 16.578125 4.53125 19.335938 3.71875 22.203125 C 2.914062 25.078125 2.582031 27.890625 2.71875 30.640625 C 2.84375 32.347656 3.390625 33.914062 4.359375 35.34375 C 5.515625 36.945312 6.53125 37.519531 7.40625 37.0625 C 8.28125 36.613281 9.015625 35.507812 9.609375 33.75 C 10.210938 31.988281 10.707031 29.914062 11.09375 27.53125 C 11.476562 25.144531 11.773438 22.8125 11.984375 20.53125 C 12.203125 18.25 12.375 16.351562 12.5 14.84375 C 12.53125 14.332031 12.5625 13.882812 12.59375 13.5 Z M 12.59375 13.5 "/></g></g></g><g fill="#231f20" fill-opacity="1"><g transform="translate(227.019687, 119.172052)"><g><path d="M 5.234375 0.203125 C 4.441406 0.203125 3.753906 0.0976562 3.171875 -0.109375 C 2.585938 -0.328125 2.101562 -0.566406 1.71875 -0.828125 C 1.269531 -1.128906 0.894531 -1.476562 0.59375 -1.875 L 1.578125 -2.859375 C 1.828125 -2.535156 2.128906 -2.253906 2.484375 -2.015625 C 2.785156 -1.804688 3.160156 -1.613281 3.609375 -1.4375 C 4.066406 -1.269531 4.609375 -1.1875 5.234375 -1.1875 C 5.753906 -1.1875 6.21875 -1.253906 6.625 -1.390625 C 7.03125 -1.523438 7.367188 -1.710938 7.640625 -1.953125 C 7.921875 -2.203125 8.132812 -2.488281 8.28125 -2.8125 C 8.425781 -3.132812 8.5 -3.484375 8.5 -3.859375 C 8.5 -4.210938 8.421875 -4.546875 8.265625 -4.859375 C 8.117188 -5.179688 7.898438 -5.46875 7.609375 -5.71875 C 7.328125 -5.96875 6.984375 -6.160156 6.578125 -6.296875 C 6.179688 -6.441406 5.734375 -6.515625 5.234375 -6.515625 L 3.859375 -6.515625 L 3.859375 -7.90625 L 5.234375 -7.90625 C 6.078125 -7.90625 6.734375 -8.128906 7.203125 -8.578125 C 7.671875 -9.023438 7.90625 -9.625 7.90625 -10.375 C 7.90625 -11.019531 7.671875 -11.5625 7.203125 -12 C 6.734375 -12.4375 6.078125 -12.65625 5.234375 -12.65625 C 4.710938 -12.65625 4.253906 -12.570312 3.859375 -12.40625 C 3.472656 -12.238281 3.148438 -12.054688 2.890625 -11.859375 C 2.566406 -11.617188 2.296875 -11.351562 2.078125 -11.0625 L 1.09375 -12.15625 C 1.363281 -12.5 1.703125 -12.804688 2.109375 -13.078125 C 2.453125 -13.316406 2.882812 -13.535156 3.40625 -13.734375 C 3.925781 -13.929688 4.535156 -14.03125 5.234375 -14.03125 C 5.859375 -14.03125 6.421875 -13.929688 6.921875 -13.734375 C 7.429688 -13.535156 7.867188 -13.269531 8.234375 -12.9375 C 8.609375 -12.613281 8.894531 -12.226562 9.09375 -11.78125 C 9.289062 -11.332031 9.390625 -10.863281 9.390625 -10.375 C 9.390625 -9.78125 9.28125 -9.285156 9.0625 -8.890625 C 8.84375 -8.492188 8.601562 -8.179688 8.34375 -7.953125 C 8.039062 -7.671875 7.695312 -7.457031 7.3125 -7.3125 C 7.789062 -7.175781 8.21875 -6.957031 8.59375 -6.65625 C 8.914062 -6.394531 9.207031 -6.039062 9.46875 -5.59375 C 9.738281 -5.144531 9.875 -4.566406 9.875 -3.859375 C 9.875 -3.335938 9.765625 -2.832031 9.546875 -2.34375 C 9.335938 -1.863281 9.03125 -1.4375 8.625 -1.0625 C 8.226562 -0.6875 7.742188 -0.378906 7.171875 -0.140625 C 6.597656 0.0859375 5.953125 0.203125 5.234375 0.203125 Z M 5.234375 0.203125 "/></g></g></g><g fill="#231f20" fill-opacity="1"><g transform="translate(250.737989, 119.172052)"><g><path d="M 5.828125 0.203125 C 5.128906 0.203125 4.488281 0.0859375 3.90625 -0.140625 C 3.332031 -0.378906 2.835938 -0.703125 2.421875 -1.109375 C 2.003906 -1.515625 1.675781 -1.992188 1.4375 -2.546875 C 1.207031 -3.097656 1.09375 -3.695312 1.09375 -4.34375 C 1.09375 -4.769531 1.140625 -5.160156 1.234375 -5.515625 C 1.335938 -5.878906 1.453125 -6.195312 1.578125 -6.46875 C 1.722656 -6.78125 1.890625 -7.0625 2.078125 -7.3125 L 6.21875 -13.828125 L 7.703125 -13.828125 L 4.453125 -8.703125 C 4.566406 -8.722656 4.695312 -8.753906 4.84375 -8.796875 C 4.976562 -8.816406 5.132812 -8.835938 5.3125 -8.859375 C 5.5 -8.878906 5.703125 -8.890625 5.921875 -8.890625 C 6.597656 -8.890625 7.21875 -8.773438 7.78125 -8.546875 C 8.351562 -8.316406 8.84375 -8 9.25 -7.59375 C 9.664062 -7.1875 9.988281 -6.703125 10.21875 -6.140625 C 10.457031 -5.585938 10.578125 -4.988281 10.578125 -4.34375 C 10.578125 -3.695312 10.457031 -3.097656 10.21875 -2.546875 C 9.976562 -1.992188 9.648438 -1.515625 9.234375 -1.109375 C 8.828125 -0.703125 8.328125 -0.378906 7.734375 -0.140625 C 7.148438 0.0859375 6.515625 0.203125 5.828125 0.203125 Z M 5.828125 -1.1875 C 6.316406 -1.1875 6.757812 -1.257812 7.15625 -1.40625 C 7.5625 -1.5625 7.910156 -1.773438 8.203125 -2.046875 C 8.492188 -2.328125 8.710938 -2.660156 8.859375 -3.046875 C 9.015625 -3.441406 9.09375 -3.875 9.09375 -4.34375 C 9.09375 -4.820312 9.015625 -5.253906 8.859375 -5.640625 C 8.710938 -6.023438 8.492188 -6.359375 8.203125 -6.640625 C 7.910156 -6.921875 7.5625 -7.132812 7.15625 -7.28125 C 6.757812 -7.4375 6.316406 -7.515625 5.828125 -7.515625 C 5.328125 -7.515625 4.878906 -7.4375 4.484375 -7.28125 C 4.085938 -7.132812 3.742188 -6.921875 3.453125 -6.640625 C 3.171875 -6.359375 2.953125 -6.023438 2.796875 -5.640625 C 2.640625 -5.253906 2.5625 -4.820312 2.5625 -4.34375 C 2.5625 -3.875 2.640625 -3.441406 2.796875 -3.046875 C 2.953125 -2.660156 3.171875 -2.328125 3.453125 -2.046875 C 3.742188 -1.773438 4.085938 -1.5625 4.484375 -1.40625 C 4.878906 -1.257812 5.328125 -1.1875 5.828125 -1.1875 Z M 5.828125 -1.1875 "/></g></g></g><g fill="#231f20" fill-opacity="1"><g transform="translate(275.049184, 119.172052)"><g><path d="M 6.734375 0.203125 C 6.015625 0.203125 5.320312 0.0390625 4.65625 -0.28125 C 3.988281 -0.601562 3.394531 -1.070312 2.875 -1.6875 C 2.363281 -2.300781 1.953125 -3.046875 1.640625 -3.921875 C 1.335938 -4.804688 1.1875 -5.804688 1.1875 -6.921875 C 1.1875 -8.023438 1.335938 -9.019531 1.640625 -9.90625 C 1.953125 -10.789062 2.363281 -11.535156 2.875 -12.140625 C 3.394531 -12.753906 3.988281 -13.222656 4.65625 -13.546875 C 5.320312 -13.867188 6.007812 -14.03125 6.71875 -14.03125 C 7.425781 -14.03125 8.113281 -13.867188 8.78125 -13.546875 C 9.445312 -13.222656 10.035156 -12.753906 10.546875 -12.140625 C 11.066406 -11.535156 11.476562 -10.789062 11.78125 -9.90625 C 12.09375 -9.019531 12.25 -8.023438 12.25 -6.921875 C 12.25 -5.804688 12.09375 -4.804688 11.78125 -3.921875 C 11.476562 -3.046875 11.070312 -2.300781 10.5625 -1.6875 C 10.050781 -1.070312 9.460938 -0.601562 8.796875 -0.28125 C 8.140625 0.0390625 7.453125 0.203125 6.734375 0.203125 Z M 6.734375 -1.1875 C 7.253906 -1.1875 7.753906 -1.304688 8.234375 -1.546875 C 8.710938 -1.796875 9.140625 -2.160156 9.515625 -2.640625 C 9.890625 -3.117188 10.191406 -3.71875 10.421875 -4.4375 C 10.648438 -5.15625 10.765625 -5.984375 10.765625 -6.921875 C 10.765625 -7.859375 10.648438 -8.679688 10.421875 -9.390625 C 10.191406 -10.109375 9.890625 -10.707031 9.515625 -11.1875 C 9.140625 -11.675781 8.707031 -12.039062 8.21875 -12.28125 C 7.726562 -12.53125 7.226562 -12.65625 6.71875 -12.65625 C 6.207031 -12.65625 5.707031 -12.53125 5.21875 -12.28125 C 4.726562 -12.039062 4.296875 -11.675781 3.921875 -11.1875 C 3.546875 -10.707031 3.242188 -10.109375 3.015625 -9.390625 C 2.785156 -8.679688 2.671875 -7.859375 2.671875 -6.921875 C 2.671875 -5.984375 2.785156 -5.15625 3.015625 -4.4375 C 3.242188 -3.71875 3.546875 -3.117188 3.921875 -2.640625 C 4.296875 -2.160156 4.726562 -1.796875 5.21875 -1.546875 C 5.707031 -1.304688 6.210938 -1.1875 6.734375 -1.1875 Z M 6.734375 -1.1875 "/></g></g></g></svg>